<svg width="47" height="46" viewBox="0 0 47 46" fill="none" xmlns="http://www.w3.org/2000/svg">
<rect width="47" height="46" fill="#DCDCDC"/>
<rect width="1440" height="900" transform="translate(-92 -28)" fill="white"/>
<rect x="0.223633" width="46" height="46" rx="4" fill="white"/>
<rect x="0.723633" y="0.5" width="45" height="45" rx="3.5" stroke="#1A3860" stroke-opacity="0.1"/>
<rect x="8.22363" y="8" width="30" height="30" rx="4" fill="#3861FB"/>
<path d="M16.5573 22.5833V25.9167C16.5573 26.6083 17.1156 27.1667 17.8073 27.1667C18.499 27.1667 19.0573 26.6083 19.0573 25.9167V22.5833C19.0573 21.8917 18.499 21.3333 17.8073 21.3333C17.1156 21.3333 16.5573 21.8917 16.5573 22.5833ZM21.5573 22.5833V25.9167C21.5573 26.6083 22.1156 27.1667 22.8073 27.1667C23.499 27.1667 24.0573 26.6083 24.0573 25.9167V22.5833C24.0573 21.8917 23.499 21.3333 22.8073 21.3333C22.1156 21.3333 21.5573 21.8917 21.5573 22.5833ZM16.1406 31.3333H29.474C30.1656 31.3333 30.724 30.775 30.724 30.0833C30.724 29.3917 30.1656 28.8333 29.474 28.8333H16.1406C15.449 28.8333 14.8906 29.3917 14.8906 30.0833C14.8906 30.775 15.449 31.3333 16.1406 31.3333ZM26.5573 22.5833V25.9167C26.5573 26.6083 27.1156 27.1667 27.8073 27.1667C28.499 27.1667 29.0573 26.6083 29.0573 25.9167V22.5833C29.0573 21.8917 28.499 21.3333 27.8073 21.3333C27.1156 21.3333 26.5573 21.8917 26.5573 22.5833ZM22.0323 14.2417L15.449 17.7083C15.1073 17.8833 14.8906 18.2417 14.8906 18.625C14.8906 19.2 15.3573 19.6667 15.9323 19.6667H29.6906C30.2573 19.6667 30.724 19.2 30.724 18.625C30.724 18.2417 30.5073 17.8833 30.1656 17.7083L23.5823 14.2417C23.099 13.9833 22.5156 13.9833 22.0323 14.2417Z" fill="white"/>
</svg>
