<svg width="40" height="40" viewBox="0 0 40 40" fill="none" xmlns="http://www.w3.org/2000/svg">
<rect width="40" height="40" fill="#DCDCDC"/>
<g clip-path="url(#clip0_176_2)">
<rect width="1440" height="1024" transform="translate(-656 -651)" fill="white"/>
<path d="M-564 -12C-564 -14.2091 -562.209 -16 -560 -16H52C54.2092 -16 56 -14.2091 56 -12V369C56 371.209 54.2092 373 52 373H-560C-562.209 373 -564 371.209 -564 369V-12Z" fill="white"/>
<path d="M-560 -15.5H52C53.933 -15.5 55.5 -13.933 55.5 -12V369C55.5 370.933 53.933 372.5 52 372.5H-560C-561.933 372.5 -563.5 370.933 -563.5 369V-12C-563.5 -13.933 -561.933 -15.5 -560 -15.5Z" stroke="url(#paint0_linear_176_2)" stroke-opacity="0.12"/>
<rect width="40" height="40" rx="4" fill="#1C3454" fill-opacity="0.26"/>
<path d="M27 12H26V11C26 10.45 25.55 10 25 10C24.45 10 24 10.45 24 11V12H16V11C16 10.45 15.55 10 15 10C14.45 10 14 10.45 14 11V12H13C11.89 12 11.01 12.9 11.01 14L11 28C11 29.1 11.89 30 13 30H27C28.1 30 29 29.1 29 28V14C29 12.9 28.1 12 27 12ZM27 27C27 27.55 26.55 28 26 28H14C13.45 28 13 27.55 13 27V17H27V27ZM15 19H17V21H15V19ZM19 19H21V21H19V19ZM23 19H25V21H23V19Z" fill="#192434"/>
</g>
<defs>
<linearGradient id="paint0_linear_176_2" x1="-254" y1="-16" x2="-254" y2="373" gradientUnits="userSpaceOnUse">
<stop stop-color="#1C3454"/>
<stop offset="1" stop-color="#1C3454" stop-opacity="0"/>
</linearGradient>
<clipPath id="clip0_176_2">
<rect width="1440" height="1024" fill="white" transform="translate(-656 -651)"/>
</clipPath>
</defs>
</svg>
