<svg width="19" height="18" viewBox="0 0 19 18" fill="none" xmlns="http://www.w3.org/2000/svg">
<path d="M8.56637 13.29C8.95637 13.68 9.58637 13.68 9.97637 13.29L13.5664 9.7C13.9564 9.31 13.9564 8.68 13.5664 8.29L9.97637 4.7C9.58637 4.31 8.95637 4.31 8.56637 4.7C8.17637 5.09 8.17637 5.72 8.56637 6.11L10.4464 8H1.77637C1.22637 8 0.776367 8.45 0.776367 9C0.776367 9.55 1.22637 10 1.77637 10H10.4464L8.56637 11.88C8.17637 12.27 8.18637 12.91 8.56637 13.29ZM16.7764 0H2.77637C1.66637 0 0.776367 0.9 0.776367 2V5C0.776367 5.55 1.22637 6 1.77637 6C2.32637 6 2.77637 5.55 2.77637 5V3C2.77637 2.45 3.22637 2 3.77637 2H15.7764C16.3264 2 16.7764 2.45 16.7764 3V15C16.7764 15.55 16.3264 16 15.7764 16H3.77637C3.22637 16 2.77637 15.55 2.77637 15V13C2.77637 12.45 2.32637 12 1.77637 12C1.22637 12 0.776367 12.45 0.776367 13V16C0.776367 17.1 1.67637 18 2.77637 18H16.7764C17.8764 18 18.7764 17.1 18.7764 16V2C18.7764 0.9 17.8764 0 16.7764 0Z" fill="#1E4DFC"/>
</svg>
