<svg width="37" height="37" viewBox="0 0 37 37" fill="none" xmlns="http://www.w3.org/2000/svg">
<rect width="37" height="37" fill="#DCDCDC"/>
<g clip-path="url(#clip0_176_2)">
<rect width="375" height="812" transform="translate(-67 -272)" fill="white"/>
<rect x="0.463379" y="0.757812" width="35.5975" height="35.5975" rx="17.7988" fill="url(#paint0_linear_176_2)"/>
<path d="M10.3516 19.5454H16.2845C16.8284 19.5454 17.2734 19.1005 17.2734 18.5566V10.646C17.2734 10.1022 16.8284 9.65723 16.2845 9.65723H10.3516C9.80776 9.65723 9.36279 10.1022 9.36279 10.646V18.5566C9.36279 19.1005 9.80776 19.5454 10.3516 19.5454ZM10.3516 27.456H16.2845C16.8284 27.456 17.2734 27.011 17.2734 26.4672V22.5119C17.2734 21.968 16.8284 21.5231 16.2845 21.5231H10.3516C9.80776 21.5231 9.36279 21.968 9.36279 22.5119V26.4672C9.36279 27.011 9.80776 27.456 10.3516 27.456ZM20.2398 27.456H26.1727C26.7166 27.456 27.1616 27.011 27.1616 26.4672V18.5566C27.1616 18.0128 26.7166 17.5678 26.1727 17.5678H20.2398C19.696 17.5678 19.251 18.0128 19.251 18.5566V26.4672C19.251 27.011 19.696 27.456 20.2398 27.456ZM19.251 10.646V14.6013C19.251 15.1452 19.696 15.5901 20.2398 15.5901H26.1727C26.7166 15.5901 27.1616 15.1452 27.1616 14.6013V10.646C27.1616 10.1022 26.7166 9.65723 26.1727 9.65723H20.2398C19.696 9.65723 19.251 10.1022 19.251 10.646Z" fill="white"/>
</g>
<defs>
<linearGradient id="paint0_linear_176_2" x1="18.2621" y1="0.757812" x2="18.2621" y2="36.3553" gradientUnits="userSpaceOnUse">
<stop stop-color="#E2EBEF"/>
<stop offset="1" stop-color="#9BB8C6"/>
</linearGradient>
<clipPath id="clip0_176_2">
<rect width="375" height="812" fill="white" transform="translate(-67 -272)"/>
</clipPath>
</defs>
</svg>
