<svg width="44" height="44" viewBox="0 0 44 44" fill="none" xmlns="http://www.w3.org/2000/svg">
<rect width="44" height="44" fill="#DCDCDC"/>
<g clip-path="url(#clip0_176_2)">
<rect width="1440" height="1024" transform="translate(-744 -563)" fill="white"/>
<path d="M-16 -132C-16 -134.209 -14.2091 -136 -12 -136H600C602.209 -136 604 -134.209 604 -132V470C604 472.209 602.209 474 600 474H-12C-14.2091 474 -16 472.209 -16 470V-132Z" fill="white"/>
<path d="M-15.5 -132C-15.5 -133.933 -13.933 -135.5 -12 -135.5H600C601.933 -135.5 603.5 -133.933 603.5 -132V470C603.5 471.933 601.933 473.5 600 473.5H-12C-13.933 473.5 -15.5 471.933 -15.5 470V-132Z" stroke="url(#paint0_linear_176_2)" stroke-opacity="0.12"/>
<g clip-path="url(#clip1_176_2)">
<rect width="44" height="44" rx="22" fill="url(#paint1_linear_176_2)"/>
<rect x="12.25" y="15.6711" width="19.5" height="14.0263" rx="0.855263" stroke="white" stroke-width="1.02632"/>
<path d="M22 13.7895L22 24.7369M22 24.7369L25.4211 21.5399M22 24.7369L18.579 21.5399" stroke="white" stroke-width="1.02632" stroke-linecap="round" stroke-linejoin="round"/>
</g>
<path d="M-16 -132C-16 -134.209 -14.2091 -136 -12 -136H600C602.209 -136 604 -134.209 604 -132V457C604 459.209 602.209 461 600 461H-12C-14.2091 461 -16 459.209 -16 457V-132Z" fill="url(#paint2_linear_176_2)" fill-opacity="0.9"/>
</g>
<defs>
<linearGradient id="paint0_linear_176_2" x1="294" y1="-136" x2="294" y2="474" gradientUnits="userSpaceOnUse">
<stop stop-color="#1C3454"/>
<stop offset="1" stop-color="#1C3454" stop-opacity="0"/>
</linearGradient>
<linearGradient id="paint1_linear_176_2" x1="22" y1="0" x2="22" y2="44" gradientUnits="userSpaceOnUse">
<stop stop-color="#192434"/>
<stop offset="1" stop-color="#0F2B54"/>
</linearGradient>
<linearGradient id="paint2_linear_176_2" x1="294" y1="461" x2="294" y2="281.613" gradientUnits="userSpaceOnUse">
<stop stop-color="white"/>
<stop offset="1" stop-color="white" stop-opacity="0"/>
</linearGradient>
<clipPath id="clip0_176_2">
<rect width="1440" height="1024" fill="white" transform="translate(-744 -563)"/>
</clipPath>
<clipPath id="clip1_176_2">
<rect width="588" height="498" fill="white" transform="translate(0 -56)"/>
</clipPath>
</defs>
</svg>
