<svg width="30" height="22" viewBox="0 0 30 22" fill="none" xmlns="http://www.w3.org/2000/svg">
<rect width="30" height="22" fill="#DCDCDC"/>
<g clip-path="url(#clip0_176_2)">
<rect width="1440" height="1024" transform="translate(-188 -522)" fill="white"/>
<path d="M-96 -91C-96 -93.2091 -94.2091 -95 -92 -95H520C522.209 -95 524 -93.2091 524 -91V93C524 95.2091 522.209 97 520 97H-92C-94.2091 97 -96 95.2091 -96 93V-91Z" fill="white"/>
<path d="M-96 -91C-96 -93.2091 -94.2091 -95 -92 -95H520C522.209 -95 524 -93.2091 524 -91V93C524 95.2091 522.209 97 520 97H-92C-94.2091 97 -96 95.2091 -96 93V-91Z" fill="url(#paint0_linear_176_2)" fill-opacity="0.05"/>
<path d="M-95.5 -91C-95.5 -92.933 -93.933 -94.5 -92 -94.5H520C521.933 -94.5 523.5 -92.933 523.5 -91V93C523.5 94.933 521.933 96.5 520 96.5H-92C-93.933 96.5 -95.5 94.933 -95.5 93V-91Z" stroke="url(#paint1_linear_176_2)" stroke-opacity="0.12"/>
<g filter="url(#filter0_d_176_2)">
<rect x="-80" y="-29" width="190" height="102" rx="4" fill="white"/>
<rect x="0.75" y="0.75" width="28.5" height="20.5" rx="1.25" fill="white"/>
<rect x="0.75" y="0.75" width="28.5" height="20.5" rx="1.25" fill="#193B67" fill-opacity="0.05"/>
<rect x="0.75" y="0.75" width="28.5" height="20.5" rx="1.25" stroke="#1E4DFC" stroke-width="1.5"/>
<path d="M14.9999 -2L15 14M15 14L20 9.32754M15 14L10 9.32754" stroke="#1E4DFC" stroke-width="1.5" stroke-linecap="round" stroke-linejoin="round"/>
<rect x="-79.5" y="-28.5" width="189" height="101" rx="3.5" stroke="#1E4DFC"/>
</g>
</g>
<defs>
<filter id="filter0_d_176_2" x="-94" y="-39" width="218" height="130" filterUnits="userSpaceOnUse" color-interpolation-filters="sRGB">
<feFlood flood-opacity="0" result="BackgroundImageFix"/>
<feColorMatrix in="SourceAlpha" type="matrix" values="0 0 0 0 0 0 0 0 0 0 0 0 0 0 0 0 0 0 127 0" result="hardAlpha"/>
<feOffset dy="4"/>
<feGaussianBlur stdDeviation="7"/>
<feComposite in2="hardAlpha" operator="out"/>
<feColorMatrix type="matrix" values="0 0 0 0 0.832129 0 0 0 0 0.868389 0 0 0 0 0.884505 0 0 0 0.7 0"/>
<feBlend mode="normal" in2="BackgroundImageFix" result="effect1_dropShadow_176_2"/>
<feBlend mode="normal" in="SourceGraphic" in2="effect1_dropShadow_176_2" result="shape"/>
</filter>
<linearGradient id="paint0_linear_176_2" x1="214" y1="-95" x2="214" y2="97" gradientUnits="userSpaceOnUse">
<stop stop-color="#193B67"/>
<stop offset="1" stop-color="#193B67" stop-opacity="0"/>
</linearGradient>
<linearGradient id="paint1_linear_176_2" x1="214" y1="-95" x2="214" y2="97" gradientUnits="userSpaceOnUse">
<stop stop-color="#1C3454"/>
<stop offset="1" stop-color="#1C3454" stop-opacity="0"/>
</linearGradient>
<clipPath id="clip0_176_2">
<rect width="1440" height="1024" fill="white" transform="translate(-188 -522)"/>
</clipPath>
</defs>
</svg>
