<svg width="37" height="37" viewBox="0 0 37 37" fill="none" xmlns="http://www.w3.org/2000/svg">
<rect width="37" height="37" fill="#DCDCDC"/>
<g clip-path="url(#clip0_176_2)">
<rect width="375" height="812" transform="translate(-67 -163)" fill="white"/>
<rect x="0.463379" y="0.628906" width="35.5975" height="35.5975" rx="17.7988" fill="url(#paint0_linear_176_2)"/>
<path d="M18.6084 22.0369L21.3672 19.2781C21.6737 18.9716 21.4562 18.4376 21.0211 18.4376H19.2511V10.5171C19.2511 9.97329 18.8061 9.52832 18.2623 9.52832C17.7184 9.52832 17.2735 9.97329 17.2735 10.5171V18.4277H15.5035C15.0585 18.4277 14.841 18.9617 15.1574 19.2682L17.9162 22.027C18.1041 22.2248 18.4205 22.2248 18.6084 22.0369ZM27.1617 9.52832H22.2077C21.6737 9.52832 21.2287 9.97329 21.2287 10.5073C21.2287 11.0511 21.6737 11.4862 22.2077 11.4862H26.1728C26.7167 11.4862 27.1617 11.9312 27.1617 12.475V24.3705C27.1617 24.9144 26.7167 25.3593 26.1728 25.3593H10.3517C9.80786 25.3593 9.36289 24.9144 9.36289 24.3705V12.4849C9.36289 11.941 9.80786 11.4961 10.3517 11.4961H14.3169C14.8508 11.4961 15.2958 11.0511 15.2958 10.5171C15.2958 9.97329 14.8508 9.52832 14.3169 9.52832H9.36289C8.27519 9.52832 7.38525 10.4183 7.38525 11.506V25.3494C7.38525 26.4371 8.27519 27.3271 9.36289 27.3271H27.1617C28.2494 27.3271 29.1393 26.4371 29.1393 25.3494V11.506C29.1393 10.4183 28.2494 9.52832 27.1617 9.52832Z" fill="white"/>
</g>
<defs>
<linearGradient id="paint0_linear_176_2" x1="18.2621" y1="0.628906" x2="18.2621" y2="36.2264" gradientUnits="userSpaceOnUse">
<stop stop-color="#203B63"/>
<stop offset="1" stop-color="#04214B"/>
</linearGradient>
<clipPath id="clip0_176_2">
<rect width="375" height="812" fill="white" transform="translate(-67 -163)"/>
</clipPath>
</defs>
</svg>
