<svg width="44" height="44" viewBox="0 0 44 44" fill="none" xmlns="http://www.w3.org/2000/svg">
<rect width="44" height="44" fill="#DCDCDC"/>
<g clip-path="url(#clip0_176_2)">
<rect width="1440" height="1024" transform="translate(-744 -787)" fill="white"/>
<path d="M-16 -356C-16 -358.209 -14.2091 -360 -12 -360H600C602.209 -360 604 -358.209 604 -356V246C604 248.209 602.209 250 600 250H-12C-14.2091 250 -16 248.209 -16 246V-356Z" fill="white"/>
<path d="M-12 -359.5H600C601.933 -359.5 603.5 -357.933 603.5 -356V246C603.5 247.933 601.933 249.5 600 249.5H-12C-13.933 249.5 -15.5 247.933 -15.5 246V-356C-15.5 -357.933 -13.933 -359.5 -12 -359.5Z" stroke="url(#paint0_linear_176_2)" stroke-opacity="0.12"/>
<g clip-path="url(#clip1_176_2)">
<rect width="44" height="44" rx="22" fill="url(#paint1_linear_176_2)"/>
<rect x="12.25" y="17.0395" width="17.4474" height="11.9737" rx="0.855263" stroke="white" stroke-width="1.02632"/>
<path fill-rule="evenodd" clip-rule="evenodd" d="M14.4736 15.5H30.8947C31.0836 15.5 31.2368 15.6532 31.2368 15.8421V26.1053C31.2368 26.2942 31.0836 26.4474 30.8947 26.4474H30.2105V27.4737H30.8947C31.6505 27.4737 32.2631 26.861 32.2631 26.1053V15.8421C32.2631 15.0864 31.6505 14.4737 30.8947 14.4737H14.4736C13.7179 14.4737 13.1052 15.0864 13.1052 15.8421V16.5263H14.1315V15.8421C14.1315 15.6532 14.2847 15.5 14.4736 15.5Z" fill="white"/>
<path d="M19.9474 19.9474L22.6842 23.0263L19.9474 26.1053" stroke="white" stroke-width="1.02632" stroke-linecap="round" stroke-linejoin="round"/>
</g>
<path d="M-16 -356C-16 -358.209 -14.2091 -360 -12 -360H600C602.209 -360 604 -358.209 604 -356V233C604 235.209 602.209 237 600 237H-12C-14.2091 237 -16 235.209 -16 233V-356Z" fill="url(#paint2_linear_176_2)" fill-opacity="0.9"/>
</g>
<defs>
<linearGradient id="paint0_linear_176_2" x1="294" y1="-360" x2="294" y2="250" gradientUnits="userSpaceOnUse">
<stop stop-color="#1C3454"/>
<stop offset="1" stop-color="#1C3454" stop-opacity="0"/>
</linearGradient>
<linearGradient id="paint1_linear_176_2" x1="0.6875" y1="1.99329" x2="48.451" y2="7.87889" gradientUnits="userSpaceOnUse">
<stop stop-color="#8B75FF"/>
<stop offset="1" stop-color="#6A89FF"/>
</linearGradient>
<linearGradient id="paint2_linear_176_2" x1="294" y1="237" x2="294" y2="57.613" gradientUnits="userSpaceOnUse">
<stop stop-color="white"/>
<stop offset="1" stop-color="white" stop-opacity="0"/>
</linearGradient>
<clipPath id="clip0_176_2">
<rect width="1440" height="1024" fill="white" transform="translate(-744 -787)"/>
</clipPath>
<clipPath id="clip1_176_2">
<rect width="588" height="498" fill="white" transform="translate(0 -280)"/>
</clipPath>
</defs>
</svg>
