<svg width="37" height="36" viewBox="0 0 37 36" fill="none" xmlns="http://www.w3.org/2000/svg">
<rect width="37" height="36" fill="#DCDCDC"/>
<g clip-path="url(#clip0_176_2)">
<rect width="375" height="812" transform="translate(-67 -218)" fill="white"/>
<rect x="0.463379" y="0.193359" width="35.5975" height="35.5975" rx="17.7988" fill="url(#paint0_linear_176_2)"/>
<path d="M18.065 16.9045C15.8203 16.3211 15.0985 15.7179 15.0985 14.7785C15.0985 13.7007 16.0972 12.9492 17.7683 12.9492C19.1724 12.9492 19.8745 13.4831 20.1316 14.3335C20.2503 14.729 20.5766 15.0257 20.9919 15.0257H21.2885C21.9411 15.0257 22.4059 14.383 22.1785 13.7699C21.7632 12.6031 20.7941 11.634 19.2516 11.2583V10.576C19.2516 9.75528 18.589 9.09277 17.7683 9.09277C16.9476 9.09277 16.2851 9.75528 16.2851 10.576V11.2286C14.3668 11.6439 12.8242 12.8898 12.8242 14.7983C12.8242 17.0824 14.7129 18.2196 17.4717 18.8821C19.9437 19.4754 20.4381 20.3455 20.4381 21.2652C20.4381 21.9474 19.9536 23.0351 17.7683 23.0351C16.1368 23.0351 15.2963 22.4517 14.97 21.6211C14.8216 21.2355 14.4854 20.9586 14.08 20.9586H13.8032C13.1406 20.9586 12.6759 21.631 12.9231 22.2441C13.4867 23.6185 14.8019 24.4294 16.2851 24.7458V25.4083C16.2851 26.229 16.9476 26.8915 17.7683 26.8915C18.589 26.8915 19.2516 26.229 19.2516 25.4083V24.7656C21.1798 24.3997 22.7124 23.2823 22.7124 21.2553C22.7124 18.447 20.3096 17.4879 18.065 16.9045Z" fill="white"/>
</g>
<defs>
<linearGradient id="paint0_linear_176_2" x1="18.2621" y1="0.193359" x2="18.2621" y2="35.7909" gradientUnits="userSpaceOnUse">
<stop stop-color="#93FF52"/>
<stop offset="1" stop-color="#189D3D"/>
</linearGradient>
<clipPath id="clip0_176_2">
<rect width="375" height="812" fill="white" transform="translate(-67 -218)"/>
</clipPath>
</defs>
</svg>
