<svg width="44" height="44" viewBox="0 0 44 44" fill="none" xmlns="http://www.w3.org/2000/svg">
<rect width="44" height="44" fill="#DCDCDC"/>
<g clip-path="url(#clip0_176_2)">
<rect width="1440" height="1024" transform="translate(-744 -619)" fill="white"/>
<path d="M-16 -188C-16 -190.209 -14.2091 -192 -12 -192H600C602.209 -192 604 -190.209 604 -188V414C604 416.209 602.209 418 600 418H-12C-14.2091 418 -16 416.209 -16 414V-188Z" fill="white"/>
<path d="M-12 -191.5H600C601.933 -191.5 603.5 -189.933 603.5 -188V414C603.5 415.933 601.933 417.5 600 417.5H-12C-13.933 417.5 -15.5 415.933 -15.5 414V-188C-15.5 -189.933 -13.933 -191.5 -12 -191.5Z" stroke="url(#paint0_linear_176_2)" stroke-opacity="0.12"/>
<g clip-path="url(#clip1_176_2)">
<rect width="44" height="44" rx="22" fill="url(#paint1_linear_176_2)"/>
<path d="M7.65 13C7.65 12.2544 8.25442 11.65 9 11.65H29C29.7456 11.65 30.35 12.2544 30.35 13V25.8621C30.35 26.6838 29.6838 27.35 28.8621 27.35H14.4828C10.7091 27.35 7.65 24.2909 7.65 20.5172V13Z" stroke="white" stroke-width="1.3"/>
<path d="M7.65 14.65H35C35.7456 14.65 36.35 15.2544 36.35 16V31C36.35 31.7456 35.7456 32.35 35 32.35H14.4828C10.7091 32.35 7.65 29.2909 7.65 25.5172V14.65Z" fill="url(#paint2_linear_176_2)" stroke="white" stroke-width="1.3"/>
<path d="M22 19V28" stroke="white" stroke-width="1.3" stroke-linecap="round" stroke-linejoin="round"/>
<path d="M17 23.5L27 23.5" stroke="white" stroke-width="1.3" stroke-linecap="round" stroke-linejoin="round"/>
</g>
<path d="M-16 -188C-16 -190.209 -14.2091 -192 -12 -192H600C602.209 -192 604 -190.209 604 -188V401C604 403.209 602.209 405 600 405H-12C-14.2091 405 -16 403.209 -16 401V-188Z" fill="url(#paint3_linear_176_2)" fill-opacity="0.9"/>
</g>
<defs>
<linearGradient id="paint0_linear_176_2" x1="294" y1="-192" x2="294" y2="418" gradientUnits="userSpaceOnUse">
<stop stop-color="#1C3454"/>
<stop offset="1" stop-color="#1C3454" stop-opacity="0"/>
</linearGradient>
<linearGradient id="paint1_linear_176_2" x1="22" y1="0" x2="22" y2="44" gradientUnits="userSpaceOnUse">
<stop stop-color="#93FF52"/>
<stop offset="1" stop-color="#189D3D"/>
</linearGradient>
<linearGradient id="paint2_linear_176_2" x1="22" y1="14" x2="22" y2="33" gradientUnits="userSpaceOnUse">
<stop stop-color="#93FF52"/>
<stop offset="1" stop-color="#189D3D"/>
</linearGradient>
<linearGradient id="paint3_linear_176_2" x1="294" y1="405" x2="294" y2="225.613" gradientUnits="userSpaceOnUse">
<stop stop-color="white"/>
<stop offset="1" stop-color="white" stop-opacity="0"/>
</linearGradient>
<clipPath id="clip0_176_2">
<rect width="1440" height="1024" fill="white" transform="translate(-744 -619)"/>
</clipPath>
<clipPath id="clip1_176_2">
<rect width="588" height="498" fill="white" transform="translate(0 -112)"/>
</clipPath>
</defs>
</svg>
